<?xml version="1.0" encoding="UTF-8"?>
<svg version="1.1" xmlns="http://www.w3.org/2000/svg" width="332" height="331">
<path d="M0 0 C109.56 0 219.12 0 332 0 C332 109.23 332 218.46 332 331 C222.44 331 112.88 331 0 331 C0 221.77 0 112.54 0 0 Z " fill="#E79347" transform="translate(0,0)"/>
<path d="M0 0 C109.56 0 219.12 0 332 0 C332 109.23 332 218.46 332 331 C222.44 331 112.88 331 0 331 C0 221.77 0 112.54 0 0 Z M79 18 C79 105.45 79 192.9 79 283 C114.949375 283.061875 150.89875 283.12375 187.9375 283.1875 C199.28890381 283.21481201 210.64030762 283.24212402 222.33569336 283.27026367 C232.51038224 283.28029693 232.51038224 283.28029693 242.68507385 283.28633118 C247.21722315 283.28912628 251.74926705 283.30036944 256.28138733 283.31672668 C262.06502744 283.33732395 267.84851457 283.34346972 273.63218796 283.33921683 C275.75313617 283.34010597 277.87408979 283.34604299 279.99500644 283.35764539 C282.86473735 283.37261304 285.73387736 283.3689536 288.60362244 283.36076355 C289.84211614 283.37387054 289.84211614 283.37387054 291.10562992 283.38724232 C297.64469485 283.33723697 304.11758136 282.30016045 309.33984375 278.1328125 C316.01907763 269.73886088 317.15136991 262.49430024 317.14044189 251.95574951 C317.14341302 251.05521355 317.14638414 250.15467759 317.1494453 249.22685266 C317.15810445 246.21470219 317.15963818 243.2025916 317.16113281 240.19042969 C317.16576293 238.02845678 317.17078785 235.86648469 317.17617798 233.70451355 C317.18928465 227.83455021 317.19574347 221.9645983 317.20018864 216.09462261 C317.20312193 212.42571293 317.20722721 208.75680636 317.21169281 205.08789825 C317.22536268 193.60400334 317.23503205 182.12011555 317.2388947 170.63621306 C317.24337545 157.38828951 317.26092637 144.14046912 317.2898953 130.89257693 C317.311522 120.64609782 317.3215995 110.39964772 317.32293582 100.15314603 C317.32398306 94.03612629 317.32987385 87.91920362 317.34775543 81.80220795 C317.36425328 76.04676561 317.36638319 70.29149312 317.35761642 64.53603554 C317.356847 62.42777615 317.36117629 60.31950757 317.37107468 58.21127129 C317.38382892 55.32470858 317.37789845 52.43874433 317.36749268 49.55218506 C317.37554908 48.72550662 317.38360548 47.89882818 317.39190602 47.04709888 C317.33254287 39.96622506 315.96184741 33.22303503 312.25 27.125 C309.36064843 24.39616796 306.53726375 22.8317973 303 21 C302.319375 20.608125 301.63875 20.21625 300.9375 19.8125 C295.62152773 17.58322131 289.81246547 17.85952266 284.15420532 17.87974548 C283.27731049 17.87888947 282.40041565 17.87803345 281.49694824 17.87715149 C278.55605015 17.87549929 275.61520928 17.8810151 272.67431641 17.88647461 C270.53095184 17.886781 268.38758717 17.88664736 266.24422264 17.88610935 C260.50549347 17.88588363 254.76678516 17.89167867 249.02806091 17.89871979 C243.64264866 17.90441555 238.25724149 17.90468296 232.87182617 17.90539551 C217.12288135 17.91064241 201.37394041 17.92460357 185.625 17.9375 C150.43875 17.958125 115.2525 17.97875 79 18 Z " fill="#0A2020" transform="translate(0,0)"/>
<path d="M0 0 C0.99 0.66 1.98 1.32 3 2 C3.42905061 5.94726562 3.08466413 8.61242079 1 12 C5.91039815 13.6716249 9.80445194 14.14863194 14.984375 13.77734375 C17 14 17 14 18.75390625 15.2734375 C20.73958153 18.02474932 20.18550176 20.72280222 20 24 C19.34 24 18.68 24 18 24 C17.74992188 24.57234375 17.49984375 25.1446875 17.2421875 25.734375 C12.4895191 34.40276391 3.15093607 39.93842041 -5 45 C-4.03589259 47.59567378 -3.04926022 49.92180276 -1.5703125 52.26953125 C0.526331 55.91518749 1.78340906 59.71328965 3.125 63.6875 C4.83498763 68.93655311 4.83498763 68.93655311 7 74 C9.43826255 90.90882075 10.92741534 110.45006991 3 126 C2.59265625 126.96164063 2.1853125 127.92328125 1.765625 128.9140625 C-7.32086632 150.33222062 -22.68758302 166.41739766 -44 175.80078125 C-64.13271383 183.84862389 -87.66654034 185.41014113 -108.12841797 177.68798828 C-109.95935598 177.01494063 -111.82596552 176.44158303 -113.69140625 175.87109375 C-133.41519177 169.65734354 -147.7173091 154.86844026 -157.6015625 137.125 C-159.24767605 133.89053127 -160.74101457 130.66027056 -162.06640625 127.28125 C-162.79878325 125.07234885 -162.79878325 125.07234885 -164 124 C-164.35246827 122.34132579 -164.65646736 120.67226035 -164.9375 119 C-165.51884849 115.57747467 -166.18882353 112.27719335 -167.125 108.9375 C-170.73018057 92.81513251 -167.40125338 74.92169304 -161 60 C-160.59136719 59.04738281 -160.18273437 58.09476563 -159.76171875 57.11328125 C-150.44723095 37.04121598 -134.07608137 22.03746428 -114 13 C-91.03822286 4.6310989 -69.03698377 5.32100541 -46 13 C-46 13.66 -46 14.32 -46 15 C-45.46632813 15.14695312 -44.93265625 15.29390625 -44.3828125 15.4453125 C-37.95811401 17.37939129 -32.62217378 20.37316973 -27 24 C-26.86851562 23.39671875 -26.73703125 22.7934375 -26.6015625 22.171875 C-24.29882189 13.85808423 -15.78466337 5.91894392 -8.98828125 1.0625 C-5.8822496 -0.59730473 -3.42046613 -0.53654371 0 0 Z " fill="#0B2121" transform="translate(267,51)"/>
<path d="M0 0 C109.56 0 219.12 0 332 0 C332 109.23 332 218.46 332 331 C222.44 331 112.88 331 0 331 C0 221.77 0 112.54 0 0 Z M41 13 C40.01386719 13.78117188 40.01386719 13.78117188 39.0078125 14.578125 C31.04444103 21.52055141 29.13188976 30.81299219 28 41 C27.8938589 43.98110668 27.90427634 46.95503715 27.9375 49.9375 C27.94201172 50.71673828 27.94652344 51.49597656 27.95117188 52.29882812 C27.96283092 54.19925268 27.98076123 56.09963706 28 58 C26.87980469 57.96519531 25.75960938 57.93039063 24.60546875 57.89453125 C23.13282749 57.86639161 21.66017002 57.83909163 20.1875 57.8125 C19.44951172 57.78736328 18.71152344 57.76222656 17.95117188 57.73632812 C13.74881332 57.64149577 13.74881332 57.64149577 10.0078125 59.32421875 C8.44012568 61.9309538 8.69075573 64.03125501 9 67 C10.72226496 70.24849977 10.72226496 70.24849977 14 71 C18.62 71 23.24 71 28 71 C28 82.55 28 94.1 28 106 C22.72 106 17.44 106 12 106 C8.7177942 108.65216494 8.7177942 108.65216494 8.6875 112 C8.78340875 115.17941514 8.78340875 115.17941514 11 118 C17.11132477 119.39223227 17.11132477 119.39223227 28 119 C28 131.21 28 143.42 28 156 C23.38 156 18.76 156 14 156 C12.35 156.99 10.7 157.98 9 159 C8.33333333 162.5 8.33333333 162.5 9 166 C9.99 166.99 10.98 167.98 12 169 C17.28 169 22.56 169 28 169 C28 181.21 28 193.42 28 206 C23.05 206 18.1 206 13 206 C11.68 206.99 10.36 207.98 9 209 C8.48979272 213.08165827 8.68638198 214.52957297 11 218 C16.61 218 22.22 218 28 218 C28 229.88 28 241.76 28 254 C22.72 254 17.44 254 12 254 C8.74054507 256.64758278 8.74054507 256.64758278 8.625 259.9375 C9.05613365 263.45842481 9.39651221 264.61133831 12 267 C14.87038052 267.29561076 17.33754745 267.37943016 20.1875 267.25 C20.93708984 267.23195313 21.68667969 267.21390625 22.45898438 267.1953125 C24.3065371 267.14824109 26.15343159 267.07649766 28 267 C27.98428955 267.92224365 27.9685791 268.8444873 27.95239258 269.79467773 C27.90089807 273.25567381 27.8634739 276.7162557 27.83520508 280.17749023 C27.82022958 281.66811598 27.79984181 283.15869851 27.77368164 284.64916992 C27.53238909 298.76241874 29.43665199 308.08494202 39 319 C49.34675869 329.34675869 67.63784479 327.25868608 81.21824646 327.28216553 C83.42691063 327.27987271 85.63557458 327.27736314 87.84423828 327.2746582 C90.21121887 327.27901352 92.57819805 327.28419938 94.94517517 327.29014587 C101.32667453 327.30344928 107.70811437 327.30412496 114.08962488 327.30158257 C118.07984318 327.30077933 122.07005231 327.30293292 126.0602684 327.30657005 C126.72523029 327.30716524 127.39019217 327.30776043 128.07530441 327.30837366 C129.42656248 327.30958552 130.77782055 327.31079965 132.12907861 327.31201603 C144.75126669 327.32285012 157.37342794 327.320747 169.99561749 327.31463119 C181.53656346 327.30944881 193.07742536 327.32075951 204.61835469 327.33972941 C216.4953285 327.35910112 228.37226249 327.36736605 240.2492522 327.36360615 C246.90700826 327.36169526 253.56470153 327.36443801 260.22244644 327.37832069 C266.47212171 327.39086813 272.72162755 327.38898416 278.97130013 327.37590981 C281.26507562 327.37353891 283.55886296 327.37629697 285.85262489 327.38453293 C288.98089698 327.394957 292.10859571 327.38693476 295.23684692 327.3742218 C296.1461745 327.38159609 297.05550207 327.38897037 297.99238503 327.39656812 C303.09774742 327.3528502 306.53295735 326.76009576 311 324 C311 323.34 311 322.68 311 322 C311.721875 321.773125 312.44375 321.54625 313.1875 321.3125 C320.64043198 317.83446508 325.59434442 309.88963798 328.34892285 302.38431942 C329.55867723 297.95405971 329.41481943 293.51317977 329.38768005 288.94871521 C329.39306559 287.85651029 329.39845113 286.76430537 329.40399987 285.63900334 C329.41827292 281.99025835 329.41117714 278.34187648 329.40405273 274.69311523 C329.40975653 272.07278146 329.41672083 269.45245017 329.42485046 266.8321228 C329.44201615 260.46070846 329.44288332 254.08939282 329.43763756 247.71796136 C329.43359132 242.53894937 329.43504479 237.35996649 329.44038582 232.18095589 C329.44113424 231.44303942 329.44188266 230.70512294 329.44265376 229.94484537 C329.44418528 228.44565875 329.44572363 226.94647214 329.44726873 225.44728554 C329.4609851 211.40013565 329.45556163 197.35304151 329.44408352 183.30589289 C329.43414674 170.45885374 329.44710097 157.61195852 329.47101771 144.76494157 C329.495406 131.56496466 329.50501758 118.3650548 329.49836498 105.16505581 C329.49487284 97.75762784 329.49710477 90.35031062 329.51461601 82.9428997 C329.53087269 75.9800347 329.52616069 69.01744941 329.50731087 62.05459213 C329.50361752 59.49839774 329.50675504 56.94218305 329.51719666 54.38600731 C329.53035607 50.89845236 329.51890258 47.4118163 329.50120544 43.92430115 C329.51081045 42.9112648 329.52041546 41.89822845 329.53031152 40.85449404 C329.46549422 34.6525161 328.49604085 31.13439834 325 26 C324.66226562 25.113125 324.32453125 24.22625 323.9765625 23.3125 C321.12593586 16.56221612 313.53788316 10.98992509 307 8 C299.97136592 6.17970775 292.98894337 5.70832762 285.76051331 5.73930359 C284.79177951 5.73547804 283.82304572 5.73165249 282.82495636 5.72771102 C279.6118444 5.7174761 276.39891434 5.72135494 273.18579102 5.7253418 C270.86869137 5.7209901 268.55159316 5.71580543 266.23449707 5.70985413 C259.96386524 5.69650326 253.69329384 5.69588103 247.42265058 5.69841743 C242.17918222 5.69948964 236.93572596 5.69459745 231.69226021 5.689812 C218.61236441 5.67809799 205.53250293 5.67893419 192.45260494 5.68536881 C181.11585607 5.69053783 169.77919314 5.67927919 158.44246126 5.66027059 C146.77579769 5.6408601 135.10917838 5.63293265 123.44249862 5.63639385 C116.90296071 5.6382037 110.36350154 5.6356 103.82397652 5.62167931 C97.67366196 5.60907596 91.5235191 5.61106892 85.37320709 5.62409019 C83.12226999 5.62644992 80.8713207 5.62374307 78.62039757 5.61546707 C58.63761635 4.92830102 58.63761635 4.92830102 41 13 Z " fill="#09B2AE" transform="translate(0,0)"/>
<path d="M0 0 C0 0.66 0 1.32 0 2 C0.72058594 2.09796875 1.44117188 2.1959375 2.18359375 2.296875 C5.3944998 3.09848816 7.37219353 4.33726279 10.0625 6.25 C10.89910156 6.83265625 11.73570312 7.4153125 12.59765625 8.015625 C15 10 15 10 19 15 C12.07 19.95 12.07 19.95 5 25 C3.370625 24.113125 1.74125 23.22625 0.0625 22.3125 C-0.95070313 21.7659375 -1.96390625 21.219375 -3.0078125 20.65625 C-4.7764303 19.67727618 -6.5296505 18.66781502 -8.2421875 17.59375 C-19.89440293 10.38256762 -34.66782701 9.35805704 -47.9296875 11.69140625 C-61.7361155 15.01106047 -74.42744152 22.28976285 -82.3671875 34.44140625 C-91.10358416 48.8092238 -94.70682915 64.48808857 -90.8125 81.1875 C-86.76076013 95.16225093 -80.31062861 107.58670607 -68 116 C-63.76356053 118.25376454 -59.4438737 120.19337845 -55 122 C-54.39051514 122.27287842 -53.78103027 122.54575684 -53.15307617 122.8269043 C-47.80260344 125.08730019 -43.08166321 125.43433672 -37.3125 125.3125 C-36.43835449 125.3019458 -35.56420898 125.2913916 -34.66357422 125.28051758 C-19.49253389 125.33009754 -19.49253389 125.33009754 -6.609375 118.5625 C-4.82792575 116.83293762 -3.00200204 115.71446359 -0.875 114.4375 C10.28716485 107.02625743 18.16946182 95.31656858 21.4375 82.3125 C23.7400088 66.60887259 22.9169874 50.31809007 13.7578125 36.8671875 C13 35 13 35 13.52734375 32.99609375 C15.48036729 30.34889208 17.65998225 28.93958623 20.4375 27.1875 C21.40558594 26.56230469 22.37367188 25.93710938 23.37109375 25.29296875 C26 24 26 24 29 25 C30.99881161 27.80710847 32.45501669 30.92438307 34 34 C34.36480469 34.69480469 34.72960937 35.38960937 35.10546875 36.10546875 C43.44378159 53.13351757 43.50379045 75.09413778 37.73632812 92.95605469 C31.61843607 109.93847918 20.9600845 124.54873776 4.84765625 133.1875 C3 134 3 134 1 134 C1 134.66 1 135.32 1 136 C-1.1215286 136.8009229 -3.24745042 137.59021092 -5.375 138.375 C-6.55835938 138.81585938 -7.74171875 139.25671875 -8.9609375 139.7109375 C-21.43314307 143.91368146 -34.0037131 143.3956606 -47 143 C-48.87171875 142.94972656 -48.87171875 142.94972656 -50.78125 142.8984375 C-64.99509843 141.61626045 -79.46779434 132.20506724 -89 122 C-89.61617187 121.37867188 -90.23234375 120.75734375 -90.8671875 120.1171875 C-99.7658594 110.66482046 -105.33762697 99.35124185 -109 87 C-109.24621094 86.18402344 -109.49242188 85.36804688 -109.74609375 84.52734375 C-114.59234284 65.04208015 -109.79242341 44.73667565 -100.01269531 27.68310547 C-97.67488305 23.79764796 -95.05310241 20.34542072 -92 17 C-91.31164062 16.24332031 -90.62328125 15.48664063 -89.9140625 14.70703125 C-66.10897999 -10.22566044 -30.61600152 -14.18653551 0 0 Z " fill="#EBE8DC" transform="translate(222,78)"/>
<path d="M0 0 C0 97.68 0 195.36 0 296 C-12.49570439 295.03879197 -15.64651777 294.49436334 -23.375 286.5625 C-26.67092074 281.36508652 -27.24906468 276.01977599 -27.1953125 269.97265625 C-27.18886719 268.68681641 -27.18242188 267.40097656 -27.17578125 266.07617188 C-27.15907601 264.73827846 -27.14214619 263.40038783 -27.125 262.0625 C-27.11495322 260.69727217 -27.10583036 259.3320372 -27.09765625 257.96679688 C-27.07417605 254.64434801 -27.04133359 251.32226679 -27 248 C-26.01257812 247.87882813 -25.02515625 247.75765625 -24.0078125 247.6328125 C-22.72648437 247.46523438 -21.44515625 247.29765625 -20.125 247.125 C-18.84882812 246.96257812 -17.57265625 246.80015625 -16.2578125 246.6328125 C-12.92835773 246.30122527 -12.92835773 246.30122527 -11 244 C-10.66666667 241 -10.66666667 241 -11 238 C-14.1839129 234.37946674 -14.1839129 234.37946674 -27 235 C-27 223.12 -27 211.24 -27 199 C-22.05 199 -17.1 199 -12 199 C-11.79375 197.55625 -11.5875 196.1125 -11.375 194.625 C-11.25898437 193.81289062 -11.14296875 193.00078125 -11.0234375 192.1640625 C-11.01570313 191.44992188 -11.00796875 190.73578125 -11 190 C-14.1839129 186.37946674 -14.1839129 186.37946674 -27 187 C-27 174.79 -27 162.58 -27 150 C-22.71 149.67 -18.42 149.34 -14 149 C-12.515 148.01 -12.515 148.01 -11 147 C-10.49989476 144.04230823 -10.49989476 144.04230823 -11 141 C-14.83156675 136.51764187 -14.83156675 136.51764187 -27 137 C-27 124.46 -27 111.92 -27 99 C-22.05 99 -17.1 99 -12 99 C-11.773125 97.741875 -11.54625 96.48375 -11.3125 95.1875 C-11.18488281 94.47980469 -11.05726562 93.77210937 -10.92578125 93.04296875 C-10.78474645 90.53428438 -10.78474645 90.53428438 -14 88 C-18.29 87.67 -22.58 87.34 -27 87 C-27 75.12 -27 63.24 -27 51 C-20.565 50.505 -20.565 50.505 -14 50 C-13.01 49.34 -12.02 48.68 -11 48 C-10.5 45 -10.5 45 -11 42 C-14.52155964 39.65229357 -16.50771843 39.62330386 -20.6875 39.375 C-21.86699219 39.30023438 -23.04648437 39.22546875 -24.26171875 39.1484375 C-25.16535156 39.09945312 -26.06898437 39.05046875 -27 39 C-27.91467785 13.50863181 -27.91467785 13.50863181 -21.3515625 6.15234375 C-14.64275336 -0.04378347 -9.56696469 0 0 0 Z " fill="#E49147" transform="translate(67,19)"/>
<path d="M0 0 C0.28673283 8.17188562 -0.81473768 14.37438704 -6 21 C-12.15158714 27.15158714 -19.21005928 29.32061876 -27.84129769 29.38724393 C-28.65941789 29.3785054 -29.4775381 29.36976688 -30.32044983 29.36076355 C-31.21427051 29.36332682 -32.1080912 29.3658901 -33.02899736 29.36853105 C-36.00006995 29.37344093 -38.97062526 29.3570224 -41.94165039 29.34057617 C-44.08088163 29.3397293 -46.22011375 29.34020622 -48.35934448 29.34190369 C-54.15002606 29.34276269 -59.94052035 29.32515207 -65.73115849 29.30418181 C-71.78897856 29.28539935 -77.84680314 29.28366333 -83.90464783 29.28010559 C-95.36853802 29.27078976 -106.83234216 29.24618215 -118.29619449 29.21605712 C-131.35055626 29.18249881 -144.40492219 29.16602349 -157.45931637 29.15097082 C-184.3062602 29.11963224 -211.15312164 29.06627474 -238 29 C-238 22.07 -238 15.14 -238 8 C-235.25350128 7.99413376 -232.50700256 7.98826752 -229.67727661 7.98222351 C-203.80934592 7.92555815 -177.94149879 7.85247916 -152.07365608 7.76428509 C-138.77436647 7.71933695 -125.47512313 7.67991997 -112.17578125 7.65356445 C-100.58285959 7.6305765 -88.99002257 7.59716938 -77.39716804 7.55129844 C-71.25996579 7.52737717 -65.12284731 7.50864113 -58.98559952 7.50238609 C-53.20556706 7.4963304 -47.42574889 7.47631257 -41.64579582 7.44572449 C-39.52788596 7.43695212 -37.40994809 7.43322002 -35.2920208 7.43499184 C-32.39195479 7.43665152 -29.49253666 7.41988598 -26.59255981 7.39872742 C-25.76178866 7.40357499 -24.9310175 7.40842257 -24.07507145 7.41341704 C-15.51619888 7.31093111 -6.86845623 0 0 0 Z " fill="#F1EDE1" transform="translate(317,287)"/>
<path d="M0 0 C1.40233887 -0.00966797 1.40233887 -0.00966797 2.83300781 -0.01953125 C11.46525257 0.14015453 17.56307142 2.42615981 24.75 7.1875 C25.69875 7.81011719 26.6475 8.43273437 27.625 9.07421875 C28.32625 9.54472656 29.0275 10.01523438 29.75 10.5 C28.28862003 12.23417089 26.81850968 13.95911765 25.33203125 15.671875 C24.09783218 17.09806059 22.88776156 18.54513751 21.6875 20 C19.75 21.5 19.75 21.5 17.5625 21.5 C14.75 20.5 14.75 20.5 12.88671875 19.52734375 C5.48051001 15.7497711 -2.01097338 14.9188195 -10.05859375 17.34765625 C-17.29230698 20.59567056 -22.80125264 25.8510473 -26.1875 33.0625 C-28.56309098 40.57530648 -28.64003063 50.10707912 -25.6875 57.4375 C-21.5007262 65.1568642 -16.42348142 70.333576 -8.2109375 73.65234375 C-0.38238186 75.89350018 7.05360555 75.20393476 14.4296875 71.82421875 C22.62087235 67.14945164 26.81393718 61.30818846 29.75 52.5 C30.10758553 46.03019675 30.40709644 39.83491171 28.1875 33.6875 C27.609375 31.609375 27.609375 31.609375 27.75 29.5 C30.25394888 25.88810913 33.16616535 23.03929993 36.75 20.5 C37.74 20.5 38.73 20.5 39.75 20.5 C40.57011312 22.05851755 41.38076213 23.62201716 42.1875 25.1875 C42.63996094 26.05761719 43.09242188 26.92773438 43.55859375 27.82421875 C47.55973361 36.81038533 47.70118857 50.63724515 45.04101562 59.99365234 C41.32181772 69.49132206 35.6492404 77.77736033 27.25 83.6875 C26.3321875 84.34105469 25.414375 84.99460937 24.46875 85.66796875 C16.45543249 91.06774736 11.04673703 91.72266245 1.5 91.8125 C0.48808594 91.84150391 -0.52382812 91.87050781 -1.56640625 91.90039062 C-8.26610728 91.95687319 -12.53099318 90.88987173 -18.25 87.5 C-19.13816406 87.17257813 -20.02632812 86.84515625 -20.94140625 86.5078125 C-31.01094652 82.11197259 -38.34134659 70.95370286 -43.25 61.5 C-44.85415512 56.41962284 -44.51486367 51.08742938 -44.5625 45.8125 C-44.59150391 44.76126953 -44.62050781 43.71003906 -44.65039062 42.62695312 C-44.70706705 35.62087472 -43.66464093 30.61307046 -40.25 24.5 C-39.73179687 23.50871094 -39.21359375 22.51742187 -38.6796875 21.49609375 C-32.96090372 12.08452747 -25.35740632 5.33566702 -15 1.34375 C-9.97633785 0.21342602 -5.13739966 0.03401125 0 0 Z " fill="#09B0AD" transform="translate(186.25,100.5)"/>
<path d="M0 0 C35.18625 -0.020625 70.3725 -0.04125 106.625 -0.0625 C117.74268066 -0.071604 128.86036133 -0.08070801 140.31494141 -0.09008789 C153.87182617 -0.09460449 153.87182617 -0.09460449 160.21469116 -0.09544373 C164.65276589 -0.09637686 169.0908287 -0.10013028 173.52890015 -0.10557556 C179.18744247 -0.1124265 184.84596742 -0.11449264 190.5045135 -0.11307228 C192.58275282 -0.11336935 194.66099273 -0.11535707 196.73922849 -0.11921513 C199.54424281 -0.12418108 202.34918948 -0.12299275 205.15420532 -0.12025452 C205.96915655 -0.12316718 206.78410778 -0.12607985 207.6237545 -0.12908077 C211.86184735 -0.11794404 215.82492267 0.15976978 220 1 C220 1.33 220 1.66 220 2 C148.06 2 76.12 2 2 2 C2 88.13 2 174.26 2 263 C37.805 262.855625 73.61 262.71125 110.5 262.5625 C121.80830078 262.51939697 133.11660156 262.47629395 144.76757812 262.43188477 C154.89837927 262.38863477 154.89837927 262.38863477 165.0291748 262.34410095 C169.54381707 262.32428955 174.05846089 262.30719223 178.57312012 262.29173279 C184.33273081 262.27192153 190.09230443 262.24748058 195.85188198 262.21969402 C197.96509345 262.21028612 200.07831293 262.20250163 202.1915369 262.19653046 C205.04834533 262.18822423 207.90506504 262.17395523 210.76184082 262.15821838 C211.58652611 262.1572412 212.4112114 262.15626402 213.26088715 262.15525723 C218.25482233 262.12000001 223.05509075 261.70810071 228 261 C227.67 261.66 227.34 262.32 227 263 C221.14914474 264.86469817 215.82992753 265.28343785 209.72387695 265.24050903 C208.82490189 265.24222107 207.92592682 265.24393311 206.99971008 265.24569702 C203.99581829 265.24899177 200.99215246 265.23798589 197.98828125 265.22705078 C195.79461169 265.22643778 193.60094173 265.22670566 191.40727234 265.2277813 C185.54225346 265.2282321 179.67731648 265.21665537 173.81231689 265.20256042 C168.3052139 265.19115552 162.79813064 265.19063336 157.29101562 265.18920898 C141.1939996 265.17872178 125.09699876 265.1507994 109 265.125 C73.03 265.08375 37.06 265.0425 0 265 C0 177.55 0 90.1 0 0 Z " fill="#BA7B3F" transform="translate(79,18)"/>
<path d="M0 0 C71.28 0 142.56 0 216 0 C216 0.33 216 0.66 216 1 C145.38 1 74.76 1 2 1 C2 6.94 2 12.88 2 19 C111.395 18.505 111.395 18.505 223 18 C219.47487291 21.52512709 215.64158547 21.11647214 210.80410886 21.12908131 C209.97142444 21.12616847 209.13874003 21.12325563 208.28082275 21.12025452 C207.39127419 21.12110894 206.50172563 21.12196337 205.58522105 21.12284368 C202.59878586 21.12449332 199.6124066 21.11898552 196.62597656 21.11352539 C194.48748272 21.11324338 192.34898878 21.11340152 190.210495 21.1139679 C184.39892528 21.11425533 178.58737612 21.1083672 172.7758112 21.10139394 C166.70460679 21.09515154 160.63340194 21.0945559 154.56219482 21.09336853 C143.0627589 21.09025784 131.56333246 21.08204796 120.06390071 21.07201904 C106.97336903 21.0608498 93.88283691 21.0553454 80.79230165 21.05032361 C53.861529 21.03986514 26.93076543 21.0220698 0 21 C0 14.07 0 7.14 0 0 Z " fill="#BFC1B8" transform="translate(79,295)"/>
<path d="M0 0 C0.680625 -0.01417969 1.36125 -0.02835937 2.0625 -0.04296875 C4 0.1875 4 0.1875 7 2.1875 C5.53871465 5.66675085 3.6239874 7.58441022 0.8125 10.0625 C-2.52732054 13.11820433 -2.52732054 13.11820433 -3.0625 17.5 C-2.711875 18.386875 -2.36125 19.27375 -2 20.1875 C-1.67 21.1775 -1.34 22.1675 -1 23.1875 C4.42579052 22.80895648 6.44024525 21.20363356 10 17.1875 C11.62836738 15.4833946 13.28769752 13.80724559 15 12.1875 C15.66 12.1875 16.32 12.1875 17 12.1875 C17.76004086 23.86257208 17.76004086 23.86257208 14.44921875 28.68359375 C10.14378925 33.15149229 5.04495662 35.46116145 -1.125 35.875 C-5.73043042 35.63147802 -8.23125835 34.12239685 -11.52734375 30.98828125 C-16.062094 25.44313572 -16.52668878 21.34187524 -16.3515625 14.2890625 C-15.74013436 8.89490759 -13.3309681 6.38861755 -9.4375 2.875 C-6.26917456 0.68154393 -3.77637152 0.03576109 0 0 Z " fill="#09B0AC" transform="translate(187,127.8125)"/>
<path d="M0 0 C3.52246541 0.8244068 4.87839561 1.72238968 6.9375 4.6875 C6.86279114 7.15289237 6.26832079 8.26962111 4.75 10.1875 C-2.00256309 15.77582808 -2.00256309 15.77582808 -5.3125 15.5 C-6.57174644 14.91534987 -7.82072148 14.30838926 -9.0625 13.6875 C-8.61590608 7.5840498 -6.39556041 1.43573805 0 0 Z " fill="#09A8A5" transform="translate(259.0625,70.3125)"/>
<path d="M0 0 C0.33 0.66 0.66 1.32 1 2 C-0.051875 1.9690625 -0.051875 1.9690625 -1.125 1.9375 C-7.09683881 2.06732258 -10.41353372 2.71180183 -14.6875 7.0625 C-15.81839684 8.35203969 -16.9326436 9.6573941 -18 11 C-18.33 10.34 -18.66 9.68 -19 9 C-13.83060283 1.55606807 -8.68636638 -0.60956957 0 0 Z " fill="#088A87" transform="translate(191,128)"/>
<path d="M0 0 C-1.53643852 3.68069887 -3.78150945 5.98775204 -6.625 8.75 C-7.85089844 9.94882813 -7.85089844 9.94882813 -9.1015625 11.171875 C-9.72804688 11.77515625 -10.35453125 12.3784375 -11 13 C-11.66 12.67 -12.32 12.34 -13 12 C-2.63106796 0 -2.63106796 0 0 0 Z " fill="#313224" transform="translate(132,78)"/>
<path d="M0 0 C0.66 0.33 1.32 0.66 2 1 C-1.96 4.96 -5.92 8.92 -10 13 C-10.66 12.67 -11.32 12.34 -12 12 C-8.27653164 7.57905197 -4.70478962 3.42166518 0 0 Z " fill="#353425" transform="translate(257,53)"/>
<path d="M0 0 C0.69738281 0.01353516 1.39476562 0.02707031 2.11328125 0.04101562 C3.82585541 0.0762055 5.53802941 0.13000845 7.25 0.1875 C7.25 0.5175 7.25 0.8475 7.25 1.1875 C6.27417969 1.22488281 5.29835938 1.26226562 4.29296875 1.30078125 C2.38451172 1.39939453 2.38451172 1.39939453 0.4375 1.5 C-1.45935547 1.58701172 -1.45935547 1.58701172 -3.39453125 1.67578125 C-6.68359181 1.90696419 -6.68359181 1.90696419 -8.625 3.59375 C-9.88721607 5.38188943 -10.85525315 7.19152625 -11.75 9.1875 C-12 6.375 -12 6.375 -11.75 3.1875 C-8.4077487 -0.49579735 -4.64070458 -0.17106567 0 0 Z " fill="#053939" transform="translate(20.75,205.8125)"/>
<path d="M0 0 C0.66 0.33 1.32 0.66 2 1 C-0.97 3.97 -3.94 6.94 -7 10 C-7.66 9.67 -8.32 9.34 -9 9 C-6.21000549 5.51250686 -3.74764169 2.49842779 0 0 Z " fill="#08918E" transform="translate(160,108)"/>
<path d="M0 0 C0.66 0.33 1.32 0.66 2 1 C-0.31 3.64 -2.62 6.28 -5 9 C-5.33 8.34 -5.66 7.68 -6 7 C-4.02 4.69 -2.04 2.38 0 0 Z " fill="#BA7B3E" transform="translate(49,22)"/>
</svg>
